<?xml version="1.0" standalone="no"?>
<!DOCTYPE svg PUBLIC "-//W3C//DTD SVG 20010904//EN"
 "http://www.w3.org/TR/2001/REC-SVG-20010904/DTD/svg10.dtd">
<svg version="1.0" xmlns="http://www.w3.org/2000/svg"
 width="150.000000pt" height="149.000000pt" viewBox="0 0 150.000000 149.000000"
 preserveAspectRatio="xMidYMid meet">

<g transform="translate(0.000000,149.000000) scale(0.100000,-0.100000)"
fill="#000000" stroke="none">
<path d="M220 1385 c0 -21 -5 -25 -30 -25 l-30 0 0 -135 0 -135 30 0 c30 0 30
-1 30 -55 0 -54 0 -55 -30 -55 -30 0 -30 -1 -30 -55 0 -52 -1 -55 -25 -55 -24
0 -25 -3 -25 -55 0 -54 0 -55 -30 -55 -25 0 -30 -4 -30 -25 0 -21 5 -25 30
-25 25 0 30 -4 30 -25 0 -21 -5 -25 -30 -25 -30 0 -30 -1 -30 -55 0 -54 0 -55
30 -55 l30 0 0 -80 c0 -79 0 -80 25 -80 25 0 25 1 25 80 0 79 0 80 -25 80 -24
0 -25 3 -25 55 0 52 1 55 25 55 20 0 25 5 25 25 0 20 -5 25 -25 25 -20 0 -25
5 -25 25 0 20 5 25 25 25 24 0 25 3 25 55 0 54 0 55 30 55 30 0 30 1 30 55 0
52 1 55 25 55 21 0 25 5 25 30 0 25 4 30 23 30 30 0 36 6 30 31 -4 15 -14 19
-54 19 l-49 0 0 135 0 135 74 0 c70 0 74 -1 80 -25 5 -18 13 -25 31 -25 21 0
25 -5 25 -30 0 -25 4 -30 25 -30 20 0 25 -5 25 -25 0 -24 3 -25 55 -25 52 0
55 1 55 25 l0 25 190 0 190 0 0 -29 c0 -22 4 -28 18 -26 9 2 34 4 55 4 33 1
37 4 37 26 0 20 5 25 25 25 34 0 37 -47 3 -52 -17 -2 -24 -11 -26 -30 -3 -27
-2 -28 47 -28 50 0 51 1 51 30 0 27 3 30 30 30 30 0 30 1 30 55 0 52 -1 55
-25 55 -21 0 -25 -5 -25 -30 0 -27 -3 -30 -30 -30 -25 0 -30 4 -30 24 0 19 -6
24 -37 30 -60 9 -63 8 -63 -24 0 -27 -3 -30 -30 -30 -27 0 -30 3 -30 30 l0 30
-190 0 -190 0 0 -30 c0 -30 -1 -30 -55 -30 -54 0 -55 0 -55 30 0 25 -4 30 -25
30 -20 0 -25 5 -25 25 0 20 -5 25 -25 25 -20 0 -25 5 -25 25 0 25 -1 25 -80
25 -79 0 -80 0 -80 -25z"/>
<path d="M1180 1385 c0 -23 -3 -25 -50 -25 -47 0 -50 -2 -50 -25 0 -23 3 -25
50 -25 47 0 50 2 50 25 0 24 3 25 54 25 l55 0 6 -54 c4 -29 4 -71 1 -92 -3
-22 -5 -47 -6 -56 0 -12 -8 -18 -25 -18 -24 0 -25 -3 -25 -55 0 -51 2 -55 24
-55 28 0 36 16 36 71 0 35 3 39 25 39 l25 0 0 110 0 110 -25 0 c-20 0 -25 5
-25 25 0 24 -3 25 -60 25 -57 0 -60 -1 -60 -25z"/>
<path d="M270 1280 c0 -25 4 -30 25 -30 20 0 25 -5 25 -25 0 -21 5 -25 30 -25
27 0 30 -3 30 -30 0 -25 4 -30 25 -30 21 0 25 5 25 30 0 25 -4 30 -25 30 -20
0 -25 5 -25 25 0 21 -5 25 -30 25 -27 0 -30 3 -30 30 0 25 -4 30 -25 30 -21 0
-25 -5 -25 -30z"/>
<path d="M1300 975 c0 -52 1 -55 25 -55 20 0 25 -5 25 -25 0 -20 -5 -25 -25
-25 -20 0 -25 -5 -25 -25 0 -20 5 -25 25 -25 24 0 25 -3 25 -55 0 -52 1 -55
25 -55 25 0 25 -1 25 -80 0 -79 0 -80 -25 -80 l-25 0 0 -110 0 -110 25 0 c25
0 25 1 25 79 0 68 -3 80 -17 84 -10 2 3 2 30 -1 l47 -5 0 112 0 111 -30 0
c-30 0 -30 1 -30 55 0 52 -1 55 -25 55 -20 0 -25 5 -25 25 0 20 5 25 25 25 21
0 25 5 25 30 0 25 -4 30 -25 30 -23 0 -25 3 -25 50 0 47 -2 50 -25 50 -24 0
-25 -3 -25 -55z"/>
<path d="M953 873 c-38 -4 -43 -7 -43 -29 0 -19 -5 -24 -25 -24 -24 0 -25 -3
-25 -55 l0 -55 -75 0 -75 0 0 55 c0 54 0 55 -30 55 -25 0 -30 4 -30 25 l0 25
-110 0 -110 0 0 -25 c0 -20 -5 -25 -25 -25 -21 0 -25 -5 -25 -30 0 -25 4 -30
25 -30 21 0 25 5 25 30 0 25 4 30 25 30 24 0 25 -3 25 -55 l0 -55 55 0 c52 0
55 -1 55 -25 0 -21 5 -25 30 -25 25 0 30 4 30 25 0 20 5 25 25 25 20 0 25 -5
25 -25 0 -20 5 -25 25 -25 25 0 25 -1 25 -85 0 -84 0 -85 -25 -85 -20 0 -25
-5 -25 -25 0 -21 5 -25 29 -25 25 0 28 3 23 25 -4 22 -1 25 27 25 27 0 31 -4
31 -26 0 -22 4 -25 28 -22 19 2 28 9 30 26 3 19 -1 22 -27 22 l-31 0 0 85 c0
84 0 85 25 85 20 0 25 5 25 25 0 20 5 25 25 25 20 0 25 -5 25 -25 0 -21 5 -25
30 -25 25 0 30 4 30 25 0 24 3 25 55 25 l55 0 0 56 c0 54 0 55 28 52 19 -2 28
-9 30 -24 2 -12 12 -24 23 -27 16 -4 19 0 19 24 0 22 -5 29 -20 29 -15 0 -20
7 -20 25 0 19 -5 25 -22 25 -13 0 -45 2 -73 4 -27 2 -69 2 -92 -1z m-303 -108
c0 -52 -1 -55 -25 -55 -17 0 -25 6 -25 18 0 9 -3 34 -6 55 -6 36 -6 37 25 37
31 0 31 0 31 -55z m320 0 c0 -54 0 -55 -30 -55 -30 0 -30 1 -30 55 0 54 0 55
30 55 30 0 30 -1 30 -55z m-170 -202 c0 -11 -5 -11 -20 -3 -11 6 -20 12 -20
13 0 2 9 3 20 3 11 0 20 -6 20 -13z"/>
<path d="M166 403 c-11 -67 -9 -73 24 -73 25 0 30 -4 30 -25 0 -20 5 -25 24
-25 17 0 25 7 28 25 5 22 2 25 -23 25 -28 0 -29 1 -29 55 0 51 -2 55 -24 55
-19 0 -24 -6 -30 -37z"/>
<path d="M480 415 c0 -21 5 -25 30 -25 27 0 30 -3 30 -30 0 -30 1 -30 55 -30
54 0 55 0 55 30 0 27 3 30 31 30 26 0 30 3 27 23 -2 16 -11 23 -30 25 -24 3
-28 0 -28 -22 0 -25 -3 -26 -55 -26 -52 0 -55 1 -55 25 0 21 -5 25 -30 25 -25
0 -30 -4 -30 -25z"/>
<path d="M860 415 c0 -20 5 -25 24 -25 25 0 43 -30 31 -50 -4 -6 16 -10 54
-10 l61 0 0 30 c0 25 4 30 25 30 20 0 25 5 25 25 0 20 -5 25 -25 25 -20 0 -25
-5 -25 -25 0 -24 -3 -25 -61 -25 -60 0 -61 0 -55 25 6 23 3 25 -24 25 -25 0
-30 -4 -30 -25z"/>
<path d="M274 381 c3 -5 15 -7 26 -4 28 7 25 13 -6 13 -14 0 -23 -4 -20 -9z"/>
<path d="M1300 365 c0 -18 5 -25 20 -25 15 0 20 7 20 25 0 18 -5 25 -20 25
-15 0 -20 -7 -20 -25z"/>
<path d="M305 340 c3 -5 8 -10 11 -10 2 0 4 5 4 10 0 6 -5 10 -11 10 -5 0 -7
-4 -4 -10z"/>
<path d="M390 326 c0 -2 9 -6 20 -9 11 -3 20 -1 20 4 0 5 -9 9 -20 9 -11 0
-20 -2 -20 -4z"/>
<path d="M1300 306 c0 -21 -6 -25 -32 -28 -32 -3 -34 -7 -29 -48 0 -5 15 -10
31 -10 27 0 30 3 30 30 0 25 4 30 25 30 20 0 25 5 25 25 0 20 -5 25 -25 25
-20 0 -25 -5 -25 -24z"/>
<path d="M270 250 c0 -25 4 -30 25 -30 20 0 25 -5 25 -25 0 -24 3 -25 55 -25
54 0 55 0 55 -30 l0 -30 80 0 c79 0 80 0 80 -25 l0 -25 190 0 190 0 0 25 c0
25 1 25 85 25 l85 0 0 30 c0 29 1 30 50 30 46 0 50 2 50 24 0 22 -29 59 -31
40 -1 -5 -5 2 -9 16 l-8 25 -1 -27 c-1 -27 -3 -28 -56 -28 -52 0 -55 -1 -55
-25 0 -21 -5 -25 -30 -25 -25 0 -30 4 -30 25 0 20 -5 25 -25 25 -20 0 -25 -5
-25 -25 0 -21 -5 -25 -31 -25 -29 0 -31 -2 -27 -30 l5 -30 -54 0 c-52 0 -53 0
-53 30 0 27 -3 30 -30 30 -27 0 -30 -3 -30 -30 0 -29 -1 -30 -50 -30 -49 0
-50 1 -50 30 0 30 -1 30 -55 30 -52 0 -55 1 -55 25 0 21 -5 25 -30 25 -25 0
-30 -4 -30 -25 0 -20 -5 -25 -25 -25 -20 0 -25 5 -25 25 0 24 -3 25 -55 25
-54 0 -55 0 -55 30 0 25 -4 30 -25 30 -21 0 -25 -5 -25 -30z m357 -136 c-3 -3
-12 -4 -19 -1 -8 3 -5 6 6 6 11 1 17 -2 13 -5z"/>
</g>
</svg>
